<svg viewBox="0 0 1024 1024" xmlns:xlink="http://www.w3.org/1999/xlink" xmlns="http://www.w3.org/2000/svg"><defs><style>.cls-1{fill:none;}.cls-2{fill:#e3a127;}.cls-3{fill:#252526;}.cls-4{fill:#e29c23;}.cls-5{clip-path:url(#clip-path);}.cls-6{fill:#231815;}.cls-7{fill:#d13b45;}.cls-8{fill:#e6b750;}.cls-9{fill:#e29620;}.cls-10{fill:#ca5853;}.cls-11{fill:#fff8ed;}.cls-12{fill:#a62224;}.cls-13{fill:#cb3937;}.cls-14{fill:#faf3e6;}.cls-15{fill:#fdfdfb;}.cls-16{fill:#41352c;}.cls-17{fill:#fffbf4;}.cls-18{fill:#4a3928;}.cls-19{fill:#e19429;}.cls-20,.cls-21{fill:#3f2618;}.cls-20{fill-rule:evenodd;}</style><clipPath id="clip-path"><path d="M751.59,618.6s42.15,0,56.38-46.26,14.76-87.9,51.75-89.11c58.73-1.92,51.67,92.48-4.25,140.33s-86,31.62-86,31.62Z" class="cls-1"></path></clipPath></defs><title>小老虎</title><g id="图层_13"><path d="M608,922.81a35.4,35.4,0,0,1-23.37-8.15c-23.51-19.62-16.36-41.91-7.51-59.14,2-4,4.21-7.8,6.32-11.49,1.13-2,2.23-3.91,3.25-5.76a9.83,9.83,0,0,0-1.25-1.89c-4.1-5.22-14.86-13.82-28.49-24.71-5.75-4.6-12.26-9.8-19-15.36-4.56-3.82-9.32-7.81-14.22-12-30.84-26.59-53.77-51.18-70.13-75.17-22.49-33-32.82-65.55-30.7-96.79C430.19,504.46,600.49,499,634.55,499c3.82,0,5.93.06,5.93.06l.64,0,.56.29a391.35,391.35,0,0,1,63.42,42.09c30.17,24.55,68.31,63.9,78.66,112a229.56,229.56,0,0,1,4.44,29.73,174.06,174.06,0,0,1,.64,20.42c-.71,37.47-12.38,70.93-36.72,105.3-3.77,5.35-8,10.89-12.92,16.93-6.17,7.6-13,15.43-21.46,24.61C697.65,872.18,646.76,922.81,608,922.81Z" class="cls-2"></path><path d="M634.55,501.88c3.76,0,5.84.06,5.84.06S761.25,562.58,781,654a226.12,226.12,0,0,1,4.37,29.34,169.61,169.61,0,0,1,.64,20.12c-.79,41.78-15.76,74.87-36.19,103.71-4,5.74-8.35,11.31-12.8,16.78-6.84,8.43-14.05,16.56-21.35,24.48-35.2,38.15-77,71.47-107.62,71.47a32.5,32.5,0,0,1-21.52-7.48c-21.61-18-15.79-38.11-6.8-55.62,3.33-6.49,7.1-12.67,10.08-18.18a8.09,8.09,0,0,0-2.07-4.07c-6.09-7.75-25-21.67-47.94-40.5-4.54-3.79-9.29-7.78-14.19-12C477.65,740.82,421.1,681,425.74,612.56c7.16-105.39,175.15-110.68,208.81-110.68m0-5.76v0c-19.19,0-68.91,1.56-116,16.07-27.42,8.44-49.52,20-65.68,34.3-20,17.76-31.08,39.86-32.83,65.68-2.17,31.9,8.33,65.08,31.19,98.61,16.5,24.2,39.6,49,70.61,75.72,5,4.23,9.78,8.26,14.25,12,6.83,5.61,13.34,10.82,19.1,15.41,13.48,10.78,24.13,19.29,28,24.23l.18.23-2.4,4.24c-2.12,3.71-4.31,7.55-6.38,11.6-4.14,8-8.86,18.76-8.71,30.31.15,12.22,5.85,23.11,16.94,32.36A38.24,38.24,0,0,0,608,925.69c38.46,0,86.59-45.94,111.85-73.33,8.53-9.23,15.39-17.1,21.59-24.75,5-6.09,9.23-11.68,13-17.09,24.68-34.85,36.52-68.83,37.24-106.93a175.44,175.44,0,0,0-.66-20.72,232.61,232.61,0,0,0-4.48-30c-10.53-48.89-49.13-88.76-79.66-113.61A387.8,387.8,0,0,0,643,496.79l-1.13-.57-1.27,0c-.08,0-2.21-.06-6-.06Z" class="cls-3"></path><path d="M783.93,660.71c-10.16,0-15.6-2.87-15.83-3l-.81-.44L747,615.72h4.61c1.63,0,40.22-.61,53.63-44.23,3-9.75,5.36-19.2,7.64-28.34,8.63-34.52,15.45-61.78,46.77-62.8l1.84,0c18.36,0,31.95,9.39,38.25,26.45,11.17,30.23-1.86,84.31-42.37,119C823.57,654.64,798.78,660.71,783.93,660.71Z" class="cls-4"></path><path d="M861.47,483.2c56.83,0,49.36,93-6,140.36-33.32,28.51-57.47,34.27-71.54,34.27-9.55,0-14.46-2.65-14.46-2.65L751.59,618.6s42.15,0,56.38-46.26,14.76-87.9,51.75-89.11l1.75,0m0-5.76h0l-1.94,0c-33.49,1.09-40.89,30.7-49.46,65-2.28,9.1-4.63,18.51-7.61,28.18-12.75,41.48-49.33,42.19-50.88,42.2l-9.16.06,4,8.23,17.87,36.58.81,1.66,1.63.88c.64.34,6.5,3.34,17.2,3.34,15.33,0,40.85-6.19,75.29-35.66A140.07,140.07,0,0,0,900,567.09c7.62-22.5,8.49-44.85,2.41-61.32-6.75-18.27-21.29-28.33-40.95-28.33Z" class="cls-3"></path><g class="cls-5"><path d="M787.65,587.74s36.1,4.63,51,51.13,35.2,1,35.2,1-49.71-83.49-85.23-69.5,20.46-26.57,20.46-26.57,53.24-20.65,94.17,30.15,7.65-19.94,5.87-22.29-67.36-64.59-110.29-19.77S759.07,576.79,787.65,587.74Z" class="cls-3"></path></g><path d="M391.94,709.31a39.73,39.73,0,0,1-11.31-1.65c-6.24-1.33-117.75-25.37-138.86-46.68-20.14-20.33-11.8-37.19-9.86-40.47,1.05-4.11,9-26.44,56.87-26.44,3.79,0,7.8.14,11.92.43,4.83.33,9.85.86,15.35,1.62,5.31.69,11.29,1.71,18.77,3.21,1.35.29,2.62.54,3.87.78l2.18.42c5.59,1.1,11.24,2.11,17.26,3.08,16.57,2.7,30.23,4.07,40.63,4.07h0c17.17,0,20.75-3.82,20.77-4.84a1.36,1.36,0,0,0,0,.28l5.39-2,30.22,64-.9,1.35c-1.17,1.75-28.9,42.77-62.35,42.78Z" class="cls-4"></path><path d="M288.78,597q5.49,0,11.72.42c4.73.32,9.75.85,15.16,1.6,5.77.76,11.95,1.86,18.6,3.18,2.07.45,4.08.81,6,1.21,6.28,1.23,12,2.23,17.38,3.09,18.43,3,31.64,4.11,41.08,4.11,25.75,0,23.62-8.17,23.62-8.17l29.52,62.55S424.24,706.43,392,706.43a36.8,36.8,0,0,1-10.61-1.56S264.71,680.05,243.81,659s-9.19-37.33-9.19-37.33S239,597,288.78,597m0-5.76h0c-47.84,0-57.71,22.13-59.49,28-4.72,7.6-8,25.19,10.43,43.77,21.36,21.57,127,44.65,140.2,47.45a42.53,42.53,0,0,0,12,1.74c35,0,63.55-42.26,64.74-44.06l1.81-2.71-1.39-2.94-29.52-62.55-10.78,3.92a2.45,2.45,0,0,1,.15-2.15s-2.75,3.1-18.2,3.1c-10.24,0-23.75-1.35-40.16-4-6-1-11.65-2-17.19-3.06l-2.15-.42c-1.23-.24-2.49-.49-3.78-.77h-.09c-7.54-1.5-13.57-2.53-19-3.24s-10.62-1.3-15.51-1.64c-4.18-.28-8.26-.43-12.12-.43Z" class="cls-3"></path><path d="M315.66,599c-.58,19.37-1.57,40.86-3.38,45.63-2.74,7.35-11.46-6.64-11.78-47.23Z" class="cls-6"></path><path d="M357.68,606.46c.86,17,2,33.66,3.39,40.92,3.22,17.51-6,17.22-11.46-.63a336.51,336.51,0,0,1-9.31-43.39C346.58,604.59,352.33,605.59,357.68,606.46Z" class="cls-6"></path><path d="M238.64,661.7a23.92,23.92,0,0,1-12.28-3.54c-21.65-12.81-15.87-37.46-15.81-37.71l.07-.24c6.1-17.86,18.23-28.52,32.46-28.52a29.88,29.88,0,0,1,13.3,3.24c18.88,9.33,15.26,29.89,14.07,36.65C268.65,641.8,255.79,661.7,238.64,661.7Z" class="cls-4"></path><path d="M243.08,594.57a26.93,26.93,0,0,1,12,2.94c16,7.9,14.14,24.35,12.52,33.57-1.68,9.52-13.73,27.74-29,27.74a21,21,0,0,1-10.81-3.14c-20.06-11.86-14.48-34.54-14.48-34.54,5.8-17,17.24-26.57,29.73-26.57m0-5.76h0c-15.29,0-28.77,11.67-35.18,30.47l-.08.24-.06.24c-2.29,9.28-1.65,29.77,17.13,40.88a26.74,26.74,0,0,0,13.75,3.94c19,0,32.65-21.16,34.65-32.5,1.28-7.28,5.18-29.45-15.64-39.73a32.67,32.67,0,0,0-14.57-3.54Z" class="cls-3"></path><path d="M538.27,770.2A134.12,134.12,0,0,1,495,763.46c-12-4.07-23.63-12.3-34.58-24.44-41.62-46.27-62-136.42-49.68-160.53,14.63-28.9,127.06-93.76,131.84-96.5l.56-.33.65-.05c.13,0,13.9-1.1,31.89-1.1,28,0,64.9,2.6,82.36,14.91,4.22,2,55.41,26.44,97.52,79.65,15.53,19.67,26.48,38.74,32.56,56.69,7.53,21.84,5.18,34.26,5.08,34.78l-.54,2.69-2.71-.4a59,59,0,0,0-7.95-.43c-14.41,0-51.86,3.66-88.34,37.5C652.19,744.36,589.75,770.2,538.27,770.2Z" class="cls-7"></path><path d="M575.66,483.39c27,0,64,2.43,80.91,14.54,0,0,52.91,23.58,96.71,78.93,17.71,22.42,27.19,41.33,32.09,55.82,7.37,21.37,5,33.3,5,33.3a62.28,62.28,0,0,0-8.38-.46c-16.22,0-53.59,4.21-90.3,38.27-38.35,35.58-99,63.53-153.41,63.53a131.05,131.05,0,0,1-42.36-6.59c-12.25-4.16-23.42-12.61-33.37-23.64-40.64-45.17-60.87-134.47-49.25-157.29C427.7,551.32,544,484.48,544,484.48s13.58-1.09,31.66-1.09m0-5.76h0c-18.1,0-31.56,1.07-32.12,1.11l-1.29.1-1.12.65c-.3.17-29.58,17-60.24,37.16-42.42,27.84-66.21,47.65-72.74,60.55-7.76,15.23-2.7,48.44,4.62,74.43,10.11,35.86,26.69,68.42,45.49,89.31,11.29,12.52,23.33,21,35.8,25.24a136.66,136.66,0,0,0,44.21,6.9c26.69,0,56.07-6.53,85-18.89,27-11.52,52.66-27.92,72.34-46.18,35.73-33.15,72.31-36.73,86.38-36.73a57.41,57.41,0,0,1,7.55.4l5.39.77,1.09-5.34c.11-.55,2.6-13.72-5.19-36.31-6.17-18.22-17.29-37.59-33-57.51-42.34-53.5-92.32-77.6-98.35-80.38-18.17-12.62-55.52-15.28-83.78-15.28Z" class="cls-3"></path><path d="M538.27,770.2A134.12,134.12,0,0,1,495,763.46c-12-4.07-23.63-12.3-34.58-24.44L454.94,733l8.05,1.28a346.17,346.17,0,0,0,53.31,4.36c37.83,0,69-7.08,92.73-21,35.56-20.9,50.27-31.48,62.08-40a295,295,0,0,1,34.81-22.26c25.86-14.33,57.8-22.56,79.06-25.49l2.34-.32.78,2.23c7.53,21.86,5.18,34.28,5.08,34.8l-.54,2.69-2.71-.4a59,59,0,0,0-7.95-.43c-14.41,0-51.86,3.66-88.34,37.5C652.19,744.36,589.75,770.2,538.27,770.2Z" class="cls-8"></path><path d="M785.37,632.68c7.37,21.37,5,33.3,5,33.3a62.28,62.28,0,0,0-8.38-.46c-16.23,0-53.59,4.21-90.3,38.27-38.35,35.58-99,63.53-153.41,63.53a131.05,131.05,0,0,1-42.36-6.59c-12.25-4.16-23.42-12.61-33.37-23.64a347.71,347.71,0,0,0,53.76,4.39c30.71,0,65.82-4.72,94.19-21.43C676,681.53,670.9,678,707.31,657.84c24.89-13.79,56.14-22.14,78.06-25.16m3.9-6.35-4.68.65c-21.53,3-53.86,11.3-80.07,25.83a298.76,298.76,0,0,0-35.09,22.43c-11.77,8.47-26.41,19-61.86,39.84-23.25,13.7-54,20.64-91.27,20.64a343.5,343.5,0,0,1-52.85-4.32l-16.11-2.57,10.92,12.11c11.29,12.52,23.33,21,35.8,25.24a136.66,136.66,0,0,0,44.21,6.9c26.69,0,56.07-6.53,85-18.89,27-11.52,52.66-27.92,72.34-46.18,35.73-33.15,72.31-36.73,86.38-36.73a57,57,0,0,1,7.54.4l5.4.77,1.09-5.34c.11-.55,2.6-13.72-5.19-36.31l-1.55-4.47Z" class="cls-3"></path><path d="M785.32,683.37a169.61,169.61,0,0,1,.64,20.12c-27,18.39-74.7,46.1-102.33,33.85,0,0,12.9-1.09,59.26-26.23C764.66,699.31,777.19,689.9,785.32,683.37Z" class="cls-6"></path><path d="M749.77,807.2c-4,5.74-8.35,11.31-12.8,16.78-19.26-7-51.31-21.47-61.08-42.76C674.39,775.13,712.09,804.3,749.77,807.2Z" class="cls-6"></path><path d="M653.78,830c-19.93.87-59.21,19.42-74.1,26.86,3.33-6.49,7.1-12.67,10.08-18.18a8.09,8.09,0,0,0-2.07-4.07C635.06,813.08,677.15,829,653.78,830Z" class="cls-6"></path><path d="M597.45,776.68s-13.34,12.05-57.7,17.4c-4.54-3.79-9.29-7.78-14.19-12C546.48,783.13,587.84,777.82,597.45,776.68Z" class="cls-6"></path><path d="M222.13,250.61c-1.56-.27-38.38-6.71-52.25-28-5.1-7.83-6.45-16.65-4-26.23,6.46-25.47,29.24-37.07,47.67-37.07,11,0,20.6,3.88,26.35,10.65,16,18.81,11.86,59,11.68,60.73l-.14,1.34L223.25,250.8Z" class="cls-9"></path><path d="M213.53,162.2c9.78,0,18.76,3.28,24.15,9.63,15.37,18.09,11,58.56,11,58.56l-26.09,17.38s-64.06-10.83-54-50.67c6-23.71,26.81-34.9,44.88-34.9m0-5.76h0a53.16,53.16,0,0,0-30.27,9.61,50.86,50.86,0,0,0-20.19,29.63c-2.64,10.39-1.16,20,4.4,28.51,14.55,22.33,52.57,29,54.18,29.26l2.25.38,1.9-1.27,26.09-17.38,2.25-1.49.28-2.69c.19-1.75,4.43-43.15-12.35-62.9-6.29-7.41-16.7-11.66-28.54-11.66Z" class="cls-3"></path><path d="M230.24,243.62c-1.5-.65-36.94-16.1-41.71-34.13a15.45,15.45,0,0,1,2.89-13.86c5.06-6.71,10.23-10,15.79-10,10.66,0,20.79,11.68,35,40.31l.7,1.4-10.31,17.24Z" class="cls-10"></path><path d="M207.21,188.54c10.61,0,21,15.71,32.38,38.7L231.38,241S178.11,218,193.72,197.36c4.59-6.08,9.06-8.82,13.49-8.82m0-5.76h0c-6.44,0-12.52,3.74-18.09,11.11a18.49,18.49,0,0,0-3.38,16.34c5,19,39.46,34.35,43.36,36l4.64,2,2.58-4.33,8.21-13.73,1.62-2.7-1.4-2.81c-12.45-25.16-23.6-41.91-37.54-41.91Z" class="cls-3"></path><path d="M539.09,191.64l-.47-1c-.73-1.61-17.76-39.89-6.66-66,4.07-9.57,11.39-16.31,21.75-20a55.78,55.78,0,0,1,18.79-3.33,55.14,55.14,0,0,1,43.59,22c8.08,10.66,11.17,23.15,8.29,33.41-7.49,26.58-47.5,47.91-49.19,48.8L574,206Z" class="cls-9"></path><path d="M572.5,104.07c31.63,0,55.23,30,49.1,51.76-7.24,25.7-47.76,47-47.76,47l-32.6-13.45s-30.09-66.61,13.44-82.18a52.91,52.91,0,0,1,17.82-3.16m0-5.76h0a58.7,58.7,0,0,0-19.76,3.5c-11.15,4-19,11.26-23.43,21.61-11.59,27.31,5.93,66.7,6.68,68.36l.94,2.08,2.12.87,32.6,13.46,2.49,1,2.39-1.26c1.74-.92,42.8-22.81,50.62-50.57,3.18-11.29,0-24.38-8.76-35.93A58,58,0,0,0,572.5,98.31Z" class="cls-3"></path><path d="M552.79,200.27c-.34-1.78-8-43.69,5.24-59.64a16.89,16.89,0,0,1,13.6-6.34c.4,0,.81,0,1.22,0,9.9.54,16.52,3.75,19.67,9.54,5.46,10,.7,26.36-16.43,56.35l-.79,1.36-22,1.17Z" class="cls-10"></path><path d="M571.63,137.17l1.06,0c29.09,1.6,21.19,26.07.9,61.59l-18,1s-11.73-62.57,16-62.57m0-5.76h0a19.92,19.92,0,0,0-15.82,7.38c-13.86,16.69-6.72,57.42-5.86,62l.93,5,5-.27,18-1,3.14-.17,1.56-2.72c17.7-31,22.47-48.12,16.46-59.16-3.66-6.72-11.07-10.43-22-11-.47,0-.93,0-1.38,0Z" class="cls-3"></path><path d="M386.53,614.64c-95.3,0-161.71-38.75-200.63-71.26-42.2-35.23-61.55-69.95-62.35-71.41l-1.71-3.09,3.38-1.05c.08,0,9.1-3,16.85-13.35A52.71,52.71,0,0,0,148.51,443c-4.87-3.27-16.7-12.25-19-23.62L129,417.3l1.82-1c.09,0,8.05-4.76,14.54-16.42h-.24a9.76,9.76,0,0,1-6.89-2.9l-1.57-1.53,1-1.91c12.83-23.6,30.78-60.09,33.92-75.17a15.67,15.67,0,0,1-5.8,1.15c-.45,0-.9,0-1.36-.06l-5.93-.56,4.13-4.3c.12-.13,12.34-12.87,16.66-20.4l.34-.6c7.41-12.95,27.08-47.34,63-79.51,45.35-40.61,99.07-62.29,159.67-64.43,5.23-.19,10.46-.28,15.58-.28,59.53,0,112.25,12.55,156.7,37.3,32.14,17.9,60.36,42.24,86.29,74.42,9.61,11.91,16,22.46,21.67,31.76,8.09,13.3,14.47,23.81,26.35,31.63l6.79,4.47-8.08.8c-.1,0-1,.1-2.4.1a33.94,33.94,0,0,1-8.2-1c9,12.77,24.82,33.21,34,37.35a2.79,2.79,0,0,0,.38.15l2.27.8-.36,2.38c-.13.8-2.6,15.67-11.15,24.87a13.83,13.83,0,0,0,5.39-2.38l5.83-4.56-1.21,7.3c-.3,1.77-7.7,43.83-50.59,92.17-39.4,44.39-117.58,102.39-266.27,126.57l-.12,0h-.12C405.53,614.27,395.91,614.64,386.53,614.64Z" class="cls-4"></path><path d="M417.92,152.22c132.65,0,201.26,61.62,240.75,110.64,23.46,29.06,27.81,50.26,48.69,64,0,0-.8.08-2.11.08-3.93,0-12.38-.73-17-6.58-.44-.55-.67-.81-.74-.81-.78,0,27.63,42.66,42.36,49.27a4.9,4.9,0,0,0,.62.26s-3.77,23.73-18.35,28.71a30.46,30.46,0,0,0,3.5.18c3.79,0,9.74-.58,13.72-3.68,0,0-28.26,169.82-314.48,216.36q-14.6,1.13-28.38,1.11c-182.82,0-260.46-141.18-260.46-141.18s9.84-3,18.31-14.37a56.11,56.11,0,0,0,7.66-14.4s-17.08-10.05-19.76-23c0,0,11.56-6.59,18.78-24a10.37,10.37,0,0,1-5.91,2.24,6.86,6.86,0,0,1-4.89-2.09s36.7-67.46,34.65-81.81a14.74,14.74,0,0,1-9.06,3.54,9.76,9.76,0,0,1-1.08-.05s12.53-13,17.07-20.95c13.66-23.86,77.82-138.06,220.61-143.1q7.88-.28,15.47-.28m0-5.76c-5.14,0-10.41.09-15.67.28C341,148.9,286.62,170.83,240.76,211.9c-36.26,32.48-56.1,67.17-63.57,80.23l-.35.61c-3.43,6-12.88,16.34-16.23,19.82l-8.26,8.6,11.87,1.13c.54,0,1.08.07,1.63.07s1.17,0,1.74-.08c-1.91,6.25-6,16.83-14.41,34.54-8.76,18.32-17.89,35.13-18,35.3L133.12,396l3.13,3a13,13,0,0,0,4.51,2.92c-5.53,8.34-11.29,11.82-11.37,11.86l-3.55,2.1.8,4.05c2.29,11.12,12.37,19.81,18.28,24.07a48.51,48.51,0,0,1-5.17,8.77c-7.11,9.52-15.34,12.3-15.43,12.32l-6.75,2.09,3.45,6.18c.82,1.48,20.43,36.65,63,72.23a307,307,0,0,0,82.51,49.46c37.17,14.91,77.53,22.47,120,22.47,9.45,0,19.15-.38,28.82-1.12l.24,0,.24,0c65.9-10.72,123.65-28.89,171.64-54,38.57-20.2,71-44.92,96.32-73.47,43.44-48.95,51-91.81,51.28-93.61l2.43-14.6-6.12,4.78A64.39,64.39,0,0,0,736.21,370l.76-4.77-4.56-1.58,0,0h0l-.1,0c-7.39-3.32-20-18.7-29-30.92.7,0,1.37.05,2,.05,1.52,0,2.5-.09,2.68-.11L724.1,331l-13.57-8.93c-11.35-7.47-17.58-17.73-25.48-30.72-5.7-9.39-12.16-20-21.89-32.09-26.16-32.46-54.66-57-87.13-75.11-44.88-25-98.08-37.67-158.11-37.67Z" class="cls-3"></path><path d="M386.53,614.64c-95.3,0-161.71-38.75-200.63-71.26-42.2-35.23-61.55-69.95-62.35-71.41l-1.71-3.09,3.38-1.05c.08,0,9.1-3,16.85-13.35l.89-1.18,1.48,0c14.81.31,36.07,1.82,53.23,7.25,4.72,1.48,9.19,3,13.47,4.38,17,5.62,30.36,10.05,44.91,10.05a73.59,73.59,0,0,0,23.44-3.95c13.15-4.34,28.28-13.05,44.31-22.27,20.13-11.57,40.94-23.55,59.43-27.55a84.66,84.66,0,0,1,17.63-1.57c28.37,0,68.82,8.56,98.35,14.82,9.33,2,17.39,3.67,23.35,4.74a98.29,98.29,0,0,0,17.32,1.58c21.36,0,38.34-7.46,58-16.11,6.8-3,13.82-6.08,21.4-9,11.9-4.6,25.59-11.77,40.07-19.36,23.24-12.18,47.26-24.78,69.88-30.29l1-.25.93.46.3.11,2.27.8-.36,2.38c-.13.8-2.6,15.67-11.16,24.87a13.81,13.81,0,0,0,5.4-2.38l5.83-4.56-1.21,7.3c-.3,1.77-7.7,43.83-50.59,92.17-39.4,44.39-117.58,102.39-266.27,126.57l-.12,0h-.12C405.53,614.27,395.91,614.64,386.53,614.64Z" class="cls-11"></path><path d="M729.9,368.82a4.9,4.9,0,0,0,.62.26s-3.77,23.73-18.35,28.71a30.46,30.46,0,0,0,3.5.18c3.79,0,9.74-.58,13.72-3.68,0,0-28.26,169.82-314.48,216.36q-14.6,1.13-28.38,1.11c-182.82,0-260.46-141.18-260.46-141.18s9.84-3,18.31-14.37c16.15.34,36.27,2,52.43,7.11,23.24,7.3,40.41,14.57,59.24,14.57a76.11,76.11,0,0,0,24.34-4.1c30.24-10,71-42.71,103.45-49.74a82.31,82.31,0,0,1,17-1.5c37.16,0,96.61,15.13,121.2,19.51a100.58,100.58,0,0,0,17.83,1.63c29.51,0,51.05-13.94,80.43-25.32,30.79-11.91,73-40.62,109.58-49.55m.67-6.09-2,.5c-23,5.6-47.14,18.28-70.53,30.54-14.41,7.55-28,14.69-39.76,19.23-7.65,3-14.7,6.06-21.53,9.06-19.36,8.52-36.07,15.87-56.82,15.87a94.47,94.47,0,0,1-16.82-1.54c-5.92-1.05-14-2.75-23.25-4.72-29.66-6.28-70.28-14.88-99-14.88a87.78,87.78,0,0,0-18.24,1.63c-18.93,4.1-39.94,16.19-60.25,27.88-15.9,9.14-30.91,17.78-43.78,22a70.6,70.6,0,0,1-22.54,3.81c-14.09,0-27.29-4.37-44-9.91-4.31-1.42-8.77-2.9-13.52-4.39-17.48-5.53-39-7.07-54-7.38l-3-.06-1.78,2.37c-7.12,9.53-15.35,12.31-15.44,12.33l-6.75,2.09,3.45,6.18c.82,1.48,20.43,36.65,63,72.23a307,307,0,0,0,82.51,49.46c37.17,14.91,77.53,22.47,120,22.47,9.45,0,19.14-.38,28.82-1.12l.24,0,.24,0c65.9-10.72,123.65-28.89,171.64-54,38.57-20.2,71-44.92,96.32-73.47,43.44-48.95,51-91.81,51.28-93.61l2.43-14.6-6.12,4.78A64.39,64.39,0,0,0,736.21,370l.76-4.77-4.56-1.58,0,0-1.79-.88Z" class="cls-3"></path><path d="M416,500.53c-17.25-.37-29.18-13.63-34.49-38.35a123.22,123.22,0,0,1-2.67-25.28l0-.95,20.59-26.66,48,13.2.18,2c.08.84,1.82,20.76-1.58,40-5.17,29.8-18.86,36.05-29.43,36.05Z" class="cls-12"></path><path d="M400.51,412.58l44.25,12.15s1.83,20.16-1.55,39.26c-3,17.27-10.17,33.67-26.59,33.67H416c-19.76-.43-28.15-19.43-31.74-36.09a121.5,121.5,0,0,1-2.6-24.62l18.82-24.37M398.32,406,396,409.06l-18.83,24.37L376,435l0,1.91a126.13,126.13,0,0,0,2.73,25.92c7.11,33.08,24.18,40.35,37.25,40.63h.71c11.68,0,26.76-6.67,32.27-38.45,3.46-19.61,1.69-39.9,1.61-40.76l-.36-4-3.85-1.06L402,407l-3.72-1Z" class="cls-3"></path><path d="M416,500.53c-17.25-.37-29.18-13.63-34.49-38.35l-.58-2.68,3.57-1a43.1,43.1,0,0,1,11.31-2,18.54,18.54,0,0,1,11.07,3.4l1.87,1.35-.91,2.12-.24.6c3.08-4.72,7.6-8.75,14.07-8.81h.45c9,0,14.18,2.41,18.75,4.53,1.14.53,2.27,1.06,3.46,1.55l2.14.87-.39,2.28c-5.17,29.8-18.86,36.06-29.43,36.06Z" class="cls-13"></path><path d="M422.09,458.13c10.53,0,15.11,3.39,21.12,5.86-3,17.27-10.17,33.67-26.59,33.67H416c-19.76-.43-28.15-19.43-31.74-36.09,3.27-.87,7.34-2.1,11.49-2.1a15.57,15.57,0,0,1,9.38,2.86s-4.86,11.4-.59,17.05c0,0,3.94-21.13,17.09-21.25h.43m0-5.76h-.48a18.05,18.05,0,0,0-12.72,5.54l-.36-.25a21.31,21.31,0,0,0-12.75-4,45.52,45.52,0,0,0-12.06,2.05l-.92.25-5.29,1.42,1.15,5.35c7.11,33.08,24.18,40.35,37.25,40.63h.71c11.68,0,26.76-6.67,32.27-38.45l.79-4.55-4.28-1.76c-1.11-.45-2.2-1-3.34-1.49-4.84-2.25-10.33-4.8-20-4.8Z" class="cls-3"></path><path d="M370.8,450.18a37.37,37.37,0,1,1,23.08-8A37.18,37.18,0,0,1,370.8,450.18Z" class="cls-14"></path><path d="M370.75,378.31a34.5,34.5,0,1,1-21.3,7.39,34.43,34.43,0,0,1,21.3-7.39m0-5.76h0a39.86,39.86,0,0,0-24.87,8.62,40.26,40.26,0,0,0,24.92,71.89,39.81,39.81,0,0,0,24.86-8.62,40.25,40.25,0,0,0-24.91-71.89Z" class="cls-3"></path><path d="M439.66,445.42a40.69,40.69,0,1,1,25.12-8.71A40.5,40.5,0,0,1,439.66,445.42Z" class="cls-14"></path><path d="M439.61,367a37.79,37.79,0,1,1-23.34,8.09A37.72,37.72,0,0,1,439.61,367m0-5.76h0A43.55,43.55,0,1,0,466.56,439a43.55,43.55,0,0,0-26.95-77.78Z" class="cls-3"></path><path d="M540.37,429.22c-26.57,0-48.24-26.47-48.3-59s21.54-59.15,48.15-59.2,48.32,26.47,48.38,59-21.54,59.15-48.15,59.2Z" class="cls-15"></path><path d="M540.3,313.89c25,0,45.36,25.11,45.42,56.14s-20.21,56.26-45.28,56.31h-.07c-25,0-45.36-25.11-45.42-56.14s20.21-56.27,45.28-56.31h.07m0-5.77h-.09c-13.89,0-26.87,6.67-36.53,18.69-9.38,11.66-14.52,27.07-14.49,43.4.07,34.13,23,61.89,51.18,61.89h.09c28.2-.05,51.09-27.91,51-62.09s-23-61.89-51.18-61.89Z" class="cls-3"></path><path d="M533.9,416.61c-20.58,0-37.37-19-37.41-42.32s16.69-42.43,37.31-42.47a33.55,33.55,0,0,1,14.89,3.47l6.12,3-6.42,2.3a17.95,17.95,0,1,0,18.07,30.28l4.63-4,.14,6.13,0,.37c0,.27,0,.53,0,.8,0,23.37-16.7,42.42-37.32,42.46Z" class="cls-16"></path><path d="M533.86,334.7a30.66,30.66,0,0,1,13.56,3.18,20.78,20.78,0,0,0,7.13,40.39h0A21,21,0,0,0,568.35,373c0,.37,0,.73,0,1.11,0,21.82-15.38,39.54-34.44,39.58h-.06c-19,0-34.49-17.65-34.53-39.45s15.37-39.54,34.44-39.58h.05m0-5.76h-.07c-10.9,0-21.1,4.85-28.71,13.6a48,48,0,0,0-11.47,31.75c0,24.92,18.12,45.2,40.29,45.2,11,0,21.18-4.85,28.79-13.6a48.08,48.08,0,0,0,11.47-31.75c0-.33,0-.65,0-1,0-.09,0-.18,0-.27l-.32-12.2-9.22,8a15.1,15.1,0,1,1-15.2-25.39l12.83-4.6-12.24-6a36.46,36.46,0,0,0-16.1-3.76Z" class="cls-3"></path><path d="M272.84,458.43c-26.57,0-48.24-26.48-48.3-59,0-15.67,4.89-30.44,13.85-41.59,9.11-11.33,21.29-17.58,34.3-17.61,26.65,0,48.32,26.48,48.38,59,0,15.67-4.89,30.44-13.85,41.59-9.11,11.33-21.29,17.58-34.3,17.61Z" class="cls-15"></path><path d="M272.77,343.09c25,0,45.36,25.12,45.42,56.14S298,455.5,272.91,455.55h-.07c-25,0-45.36-25.12-45.42-56.14s20.21-56.27,45.28-56.32h.07m0-5.76v0h-.09c-28.2.06-51.09,27.91-51,62.09s23,61.89,51.18,61.89h.09c13.89,0,26.87-6.66,36.53-18.68C318.84,431,324,415.55,324,399.22c-.07-34.12-23-61.89-51.18-61.89Z" class="cls-3"></path><path d="M266.37,445.82c-20.58,0-37.37-19-37.41-42.33s16.69-42.42,37.31-42.46a33.61,33.61,0,0,1,14.89,3.47l6.12,3-6.42,2.31a17.95,17.95,0,1,0,18.07,30.28l4.6-4,.17,6.09,0,.38c0,.26,0,.52,0,.79,0,23.39-16.7,42.44-37.32,42.48Z" class="cls-16"></path><path d="M266.33,363.91a30.79,30.79,0,0,1,13.56,3.17A20.78,20.78,0,0,0,287,407.47h0a21,21,0,0,0,13.76-5.22c0,.37.05.73.05,1.11,0,21.82-15.38,39.54-34.44,39.58h-.06c-19,0-34.49-17.65-34.53-39.45s15.37-39.54,34.43-39.58h.06m0-5.76h-.07c-10.9,0-21.1,4.85-28.72,13.6a48.07,48.07,0,0,0-11.46,31.75c0,24.92,18.12,45.2,40.29,45.2,11,0,21.18-4.85,28.79-13.6a48.1,48.1,0,0,0,11.47-31.76c0-.32,0-.65,0-1a2.44,2.44,0,0,1,0-.27l-.32-12.2-9.22,8a15.1,15.1,0,1,1-15.2-25.39l12.83-4.61-12.25-6a36.26,36.26,0,0,0-16.09-3.76Z" class="cls-3"></path><path d="M500.25,309.08c-9.25,0-17.74-3.74-22.14-9.76-3.22-4.4-4.24-10.12-2.88-16.1,1.83-8.05,7.64-15.22,15.94-19.67,4.18-2.24,9.39-3.34,14.92-4.51,10.57-2.23,22.55-4.76,31.27-16,2.56-3.27,4.95-4.87,7.31-4.87,1.18,0,4.06.47,5.43,4.75,3.53,11.09-4.73,43.07-25.31,57.65C517,306.15,508.48,309.08,500.25,309.08Z" class="cls-17"></path><path d="M544.67,241.1c7.77,0,2.54,40.1-21.55,57.17-8.08,5.72-16,7.93-22.86,7.93-9.11,0-16.39-3.88-19.83-8.58-6.4-8.76-2.15-23.88,12.1-31.53,11.48-6.16,33.07-3.22,47.11-21.23,2-2.61,3.72-3.76,5-3.76m0-5.76h0c-3.31,0-6.44,2-9.58,6-8.07,10.36-19,12.67-29.59,14.91-5.74,1.21-11.15,2.35-15.7,4.79-9,4.84-15.37,12.7-17.38,21.56-1.55,6.81-.35,13.36,3.36,18.44,4.94,6.75,14.31,10.94,24.48,10.94,8.83,0,17.88-3.11,26.19-9,21.95-15.55,30.24-48.79,26.39-60.87-2-6.27-6.75-6.76-8.17-6.76Z" class="cls-3"></path><path d="M289.06,331.05a38.32,38.32,0,0,1-20.19-6.16c-19.53-12-28.4-39.93-25.58-49.89,1.16-4.1,4.15-4.42,5-4.42,2.1,0,4.27,1.3,6.66,4,8.21,9.23,18.81,10.76,28.16,12.11,5,.71,9.62,1.39,13.46,3.14,7.64,3.48,13.21,9.52,15.31,16.58A17.54,17.54,0,0,1,310.27,321c-3.89,6.11-12.21,10.06-21.21,10.06Z" class="cls-17"></path><path d="M248.33,273.46c1.14,0,2.64.93,4.5,3,13.36,15,32.16,11.21,42.59,16,12.95,5.9,17.54,18.95,12.42,27-3,4.65-9.88,8.73-18.78,8.73a35.63,35.63,0,0,1-18.68-5.73c-22.27-13.7-29.09-49-22-49m0-5.76c-2.88,0-6.45,1.71-7.81,6.52-3.1,10.95,5.88,40.23,26.84,53.13a41.26,41.26,0,0,0,21.7,6.58c10,0,19.24-4.47,23.64-11.4a20.33,20.33,0,0,0,2-16.95c-2.33-7.86-8.48-14.56-16.87-18.38-4.22-1.92-9.09-2.63-14.24-3.37-9.3-1.34-18.92-2.73-26.43-11.18-3-3.33-5.85-4.95-8.81-4.95Z" class="cls-3"></path><path d="M401,412.31c-7.76,0-13.13-4.24-16-12.6a10,10,0,0,1,.75-8.75c3.08-5,10.31-6.69,14.35-7.25a33.75,33.75,0,0,1,4.78-.35c8.87,0,14,4.16,14.14,11.41.15,9.52-5.35,16-14.73,17.3A24.28,24.28,0,0,1,401,412.31Z" class="cls-18"></path><path d="M405,386.24c6.09,0,11.15,2.15,11.26,8.58.13,8.17-4.4,13.3-12.25,14.39a19.93,19.93,0,0,1-2.92.22c-6.29,0-10.75-3.27-13.24-10.64s4.93-11.13,12.77-12.23a31.38,31.38,0,0,1,4.38-.32m0-5.76h0a36.55,36.55,0,0,0-5.18.38c-5.54.77-12.89,2.89-16.4,8.59a12.75,12.75,0,0,0-1,11.18c4.08,12,12.42,14.56,18.7,14.56a26.82,26.82,0,0,0,3.72-.27c10.79-1.51,17.39-9.25,17.21-20.2-.11-6.89-4.64-14.24-17-14.24Z" class="cls-3"></path><path d="M346.75,236.52c3.69,2.74,22.46-12.86,62-16.76,49.36-4.87,69.25,7.43,69.59,4.48.6-5.29-16.59-15.8-71.79-10.43C358,218.54,343.06,233.78,346.75,236.52Z" class="cls-3"></path><path d="M317.91,209.71c4.17,4,20-16.2,59-23.57,48.74-9.19,82.16,1.15,82.24-1.81.13-5.33-16.6-14-71.55-6.46C330,185.79,314.59,206.53,317.91,209.71Z" class="cls-3"></path><path d="M354,162.33c4.28,3.23,22.06-7.4,53.35-9,28.77-1.51,40.55,7.56,44.18,2.18,2.51-3.71-21.26-9.92-48.47-7.24C356.28,152.84,350.57,159.75,354,162.33Z" class="cls-3"></path><path d="M404.27,217.17S386.59,178,416,151.08l-10.44-.4s-27.93,35-7.11,68.57Z" class="cls-3"></path><path d="M418.13,772.26c-18.79,0-32.64-6.62-41.17-19.67-11.16-17.07-8.28-32.11,8.34-43.49a39,39,0,0,1,11.49-5c6.06-1.85,12.33-3.76,22-13.79,2.51-2.6,4.94-5.38,7.43-8.52.78-1,1.55-2,2.33-3,2-2.59,4.09-5.39,6.34-8.39,5.44-7.25,11.6-15.47,18.51-23.72,4.8-5.76,8.82-10.2,12.65-14,18.21-18.68,34.86-27.77,50.85-27.77,9.34,0,18.38,3.21,26.88,9.56,15.44,11.49,23.36,26.6,22.9,43.72-.72,26.52-21.7,57.26-53.46,78.33C479.43,758.88,443.88,772.26,418.13,772.26Z" class="cls-19"></path><path d="M516.91,607.75c8.27,0,16.7,2.68,25.15,9,45.2,33.62,12.58,88.82-30.42,117.34-29.47,19.53-65.3,35.3-93.51,35.3-16.41,0-30.24-5.33-38.76-18.36-12.32-18.85-4.34-31.4,7.56-39.54,10.25-7,17.91-2.59,33.94-19.21,2.35-2.43,4.88-5.29,7.62-8.73q1.18-1.44,2.4-3.12c6.56-8.51,15-20.3,24.72-31.95,3.94-4.72,8.09-9.45,12.47-13.78,14.63-15,31.37-26.94,48.83-26.94m0-5.76v0h0c-16.8,0-34.11,9.37-52.91,28.64-3.88,3.84-7.95,8.33-12.81,14.15-6.95,8.3-13.14,16.56-18.6,23.84-2.23,3-4.34,5.79-6.26,8.28l-.05.07,0,.07c-.74,1-1.48,2-2.19,2.84l0,0,0,0c-2.44,3.06-4.81,5.78-7.25,8.31-9.16,9.5-14.81,11.22-20.78,13a41,41,0,0,0-12.26,5.4c-17.9,12.25-21.14,29.1-9.14,47.46,9,13.72,24,21,43.58,21,26.68,0,61.93-13.22,96.69-36.26,32.52-21.57,54-53.23,54.75-80.66.48-18.09-7.84-34-24.07-46.11-9-6.71-18.62-10.12-28.59-10.12Z" class="cls-3"></path><path d="M659.3,299.36s19.61,28.93,37.33,49.3c15.85,18.2-55,44.36-66.46,40,0,0,43.79-20.13,52.61-30.24S663.51,333.93,659.3,299.36Z" class="cls-20"></path><path d="M175.5,373.12s-13.67,27.3-26.83,46.88c-11.76,17.5,55.73,34.09,65.51,29.22,0,0-42.29-13.73-51.65-21.84S176.5,404,175.5,373.12Z" class="cls-20"></path><path d="M595.75,231.26s20.22,6.6,30.17,18.21,16.66,24.74,17.16,29.66-14.58-19.86-20.82-26C616.56,247.59,595.75,231.26,595.75,231.26Z" class="cls-21"></path><path d="M209.8,287.71s-15.39,14.68-19.35,29.44-4.35,29.51-2.68,34.17,4.58-24.21,7.57-32.42C198.07,311.42,209.8,287.71,209.8,287.71Z" class="cls-21"></path><path d="M459.22,731.36C454,728.51,435,708,420.87,692.27c2.35-2.43,4.88-5.29,7.62-8.73q1.18-1.44,2.4-3.12C463.16,716.24,466.67,735.48,459.22,731.36Z" class="cls-6"></path><path d="M511.67,680.51c11.27,14.87,6,22.54-6.22,9.62-7.57-8-32.29-27.85-49.84-41.66,3.94-4.72,8.09-9.45,12.47-13.78C485.75,649.42,504.72,671.32,511.67,680.51Z" class="cls-6"></path></g></svg>